<?xml version="1.0" encoding="UTF-8"?>
<svg width="120" height="24" viewBox="0 0 120 24" fill="none" xmlns="http://www.w3.org/2000/svg">
  <path d="M12 20.0742C10.5164 18.4925 9.54545 16.7895 9.0873 14.9651C8.62915 13.1407 8.72318 11.2297 9.35455 9.45455C9.98591 7.67939 11.1273 6.11515 12.6545 4.85152C14.1818 3.58788 16.0364 2.67879 18 2.18182C19.9636 1.68485 22 1.63636 24 2.03636C26 2.43636 27.8545 3.27273 29.4545 4.50909C31.0545 5.74545 32.3455 7.34545 33.2182 9.21818C34.0909 11.0909 34.5091 13.1636 34.4545 15.2727C34.4 17.3818 33.8727 19.4182 32.9091 21.2364C31.9455 23.0545 30.5636 24.6 28.8545 25.7636C27.1455 26.9273 25.1636 27.6727 23.0727 27.9455C20.9818 28.2182 18.8545 27.9818 16.8545 27.2545C14.8545 26.5273 13.0545 25.3273 11.6 23.7455" stroke="white" stroke-opacity="0.4" stroke-width="2"/>
</svg>
