<?xml version="1.0" encoding="UTF-8"?>
<svg width="30" height="50" viewBox="247 250 404 300" fill="none" xmlns="http://www.w3.org/2000/svg">
  <path d="M421.77,208.95c0-14.67,11.25-55.63-3.12-58.6c-9.97-2.06-17.54,26.02-18.78,36.12   c-1.59,12.97-3.7,39.5-0.88,52.26c1.97,8.91,5.84,31.6,14.79,33.37c8.29,1.64,21.72-14.38,25.89-21.73   c3.77-6.65,9.69-20.91,11.54-28.32c2.38-9.51,7.63-29.2,5.68-38.81c-2.4-11.83-12.04-38.88-23.68-42.07   c-11.05-3.02-32.27,14.56-39.22,23.66c-7.19,9.41-12.55,33.73-12.93,45.56c-0.38,11.82-0.71,36.43,4.39,47.1   c3.57,7.47,17.92,17.35,22.73,24.09c4.35,6.1,10.22,20.37,11.22,27.8c5.39,40.08-1.49,121.5-6.32,161.65   c-2,16.6-9.56,66.19-9.56,66.19s-11.49,32.96-17.45,42.89c-3.17,5.28-9.82,20.45-15.78,18.92c-10.61-2.73-13.52-31.99-10.55-42.54   c8.02-28.42,43.16-77.72,61.56-100.81c12.74-15.98,40.18-46.84,49.54-65c13.57-26.34,35.03-113.21,35.03-113.21   s-2.01,88.94-8.86,117.62c-4.86,20.34-24.21,58.24-36,75.52c-5.79,8.49-21.08,22.49-28.08,30.01c-6,6.44-22.58,27.02-22.58,27.02" stroke="grey" stroke-width="10" />
</svg> 
